<svg width="36" height="17" viewBox="0 0 36 17" fill="none" xmlns="http://www.w3.org/2000/svg">
<path d="M6.42749 16.3849H24.8093C26.9419 16.3849 28.6167 16.1531 29.8205 14.9494C31.0263 13.7435 31.2464 12.0963 31.2464 9.95741V6.42749C31.2464 4.28859 31.0263 2.63719 29.8205 1.43554C28.6146 0.231795 26.9419 0 24.8093 0H6.40827C4.30453 0 2.62968 0.231795 1.42383 1.43554C0.220076 2.63929 0 4.2982 0 6.39866V9.95741C0 12.0963 0.220076 13.7477 1.42383 14.9494C2.63179 16.1531 4.30453 16.3849 6.42749 16.3849ZM6.10898 14.089C4.89351 14.089 3.75655 13.9207 3.09866 13.2745C2.45037 12.6187 2.29592 11.4935 2.29592 10.2759V6.12609C2.29592 4.88929 2.45248 3.76827 3.09866 3.11038C3.75444 2.45248 4.90312 2.29592 6.13781 2.29592H25.1374C26.3529 2.29592 27.4877 2.4642 28.1381 3.11038C28.796 3.76616 28.9505 4.87968 28.9505 6.09726V10.2759C28.9505 11.4935 28.7939 12.6166 28.1381 13.2745C27.492 13.9228 26.3529 14.089 25.1374 14.089H6.10898ZM32.9498 11.3705C33.9199 11.3097 35.2254 10.065 35.2254 8.18765C35.2254 6.31781 33.9199 5.07515 32.9498 5.01445V11.3705Z" fill="black"/>
<path d="M5.65033 12.6198H19.672C20.4026 12.6198 20.8312 12.5111 21.1341 12.2083C21.4369 11.9054 21.5552 11.4768 21.5552 10.7462V5.63849C21.5552 4.90583 21.4369 4.47716 21.1341 4.17434C20.8312 3.87153 20.4026 3.76489 19.672 3.76489H5.67916C4.92728 3.76489 4.489 3.87153 4.18618 4.17434C3.89298 4.47716 3.77673 4.91544 3.77673 5.65771V10.7462C3.77673 11.4768 3.89298 11.9054 4.18618 12.2083C4.489 12.5111 4.92728 12.6198 5.65033 12.6198Z" fill="black"/>
</svg>
